<svg xmlns="http://www.w3.org/2000/svg" xmlns:xlink="http://www.w3.org/1999/xlink" preserveAspectRatio="xMidYMid" width="327" height="337" viewBox="0 0 327 337">
  <defs>
    <style>
      .cls-1 {
        fill: #fc5e3d;
      }

      .cls-1, .cls-2 {
        fill-rule: evenodd;
      }

      .cls-2 {
        fill: #fbd73a;
      }
    </style>
  </defs>
  <g>
    <path d="M189.000,77.000 L164.000,77.000 L139.000,77.000 L-0.000,77.000 L-0.000,0.000 L327.000,0.000 L327.000,77.000 L189.000,77.000 ZM204.094,213.778 C175.034,187.682 146.488,162.047 125.785,143.455 L125.795,218.346 L204.094,290.609 L204.094,337.000 L125.781,337.000 L125.781,98.000 L204.094,98.000 L204.094,213.778 Z" class="cls-1"/>
    <path d="M250.000,337.000 L250.000,98.000 L327.000,98.000 L327.000,334.998 L250.000,337.000 ZM222.769,297.589 L106.230,190.859 C102.237,187.234 99.000,182.240 99.000,179.703 C99.000,177.166 102.237,178.048 106.230,181.672 L222.769,288.403 C226.763,292.028 230.000,297.022 230.000,299.559 C230.000,302.096 226.763,301.214 222.769,297.589 ZM222.769,275.041 L106.230,168.310 C102.237,164.686 99.000,159.691 99.000,157.155 C99.000,154.618 102.237,155.500 106.230,159.124 L222.769,265.855 C226.763,269.479 230.000,274.474 230.000,277.011 C230.000,279.547 226.763,278.666 222.769,275.041 ZM222.769,253.328 L106.230,146.597 C102.237,142.973 99.000,137.978 99.000,135.441 C99.000,132.905 102.237,133.786 106.230,137.411 L222.769,244.142 C226.763,247.766 230.000,252.761 230.000,255.298 C230.000,257.834 226.763,256.953 222.769,253.328 ZM0.000,98.002 L77.000,98.000 L77.000,337.000 L0.000,337.000 L0.000,98.002 Z" class="cls-2"/>
  </g>
</svg>
